<mxfile host="app.diagrams.net" modified="2022-03-12T12:15:39.489Z" agent="5.0 (Windows NT 10.0; Win64; x64) AppleWebKit/537.36 (KHTML, like Gecko) Chrome/99.0.4844.51 Safari/537.36" etag="BrRPkNzG9HPvvQ4xxq4v" version="16.5.3" type="github">
  <diagram id="K-xbiwz3hSm2DLODG2Rh" name="Page-1">
    <mxGraphModel dx="920" dy="513" grid="0" gridSize="10" guides="1" tooltips="1" connect="1" arrows="1" fold="1" page="1" pageScale="1" pageWidth="827" pageHeight="1169" math="0" shadow="0">
      <root>
        <mxCell id="0" />
        <mxCell id="1" parent="0" />
        <mxCell id="h2b4vLnJVBGGuHv0BcCE-71" value="" style="rounded=0;whiteSpace=wrap;html=1;" vertex="1" parent="1">
          <mxGeometry x="4" y="1160" width="820" height="960" as="geometry" />
        </mxCell>
        <mxCell id="h2b4vLnJVBGGuHv0BcCE-40" value="" style="rounded=0;whiteSpace=wrap;html=1;" vertex="1" parent="1">
          <mxGeometry width="820" height="770" as="geometry" />
        </mxCell>
        <mxCell id="h2b4vLnJVBGGuHv0BcCE-39" value="" style="endArrow=none;dashed=1;html=1;rounded=0;entryX=0.5;entryY=1;entryDx=0;entryDy=0;" edge="1" parent="1">
          <mxGeometry width="50" height="50" relative="1" as="geometry">
            <mxPoint x="209.28999999999974" y="650.6666259765625" as="sourcePoint" />
            <mxPoint x="209.28999999999974" y="100.00000000000011" as="targetPoint" />
            <Array as="points">
              <mxPoint x="209.29000000000002" y="120" />
            </Array>
          </mxGeometry>
        </mxCell>
        <mxCell id="h2b4vLnJVBGGuHv0BcCE-38" value="" style="endArrow=none;dashed=1;html=1;rounded=0;entryX=0.5;entryY=1;entryDx=0;entryDy=0;" edge="1" parent="1">
          <mxGeometry width="50" height="50" relative="1" as="geometry">
            <mxPoint x="449.29" y="670.6666259765625" as="sourcePoint" />
            <mxPoint x="449.29" y="120.00000000000011" as="targetPoint" />
            <Array as="points">
              <mxPoint x="449.29" y="140" />
            </Array>
          </mxGeometry>
        </mxCell>
        <mxCell id="h2b4vLnJVBGGuHv0BcCE-9" value="" style="endArrow=none;dashed=1;html=1;rounded=0;entryX=0.5;entryY=1;entryDx=0;entryDy=0;" edge="1" parent="1">
          <mxGeometry width="50" height="50" relative="1" as="geometry">
            <mxPoint x="709.5" y="670.6666259765625" as="sourcePoint" />
            <mxPoint x="709.5" y="120" as="targetPoint" />
            <Array as="points">
              <mxPoint x="709.5" y="140" />
            </Array>
          </mxGeometry>
        </mxCell>
        <mxCell id="h2b4vLnJVBGGuHv0BcCE-1" value="" style="rounded=0;whiteSpace=wrap;html=1;" vertex="1" parent="1">
          <mxGeometry x="150" y="60" width="120" height="60" as="geometry" />
        </mxCell>
        <mxCell id="h2b4vLnJVBGGuHv0BcCE-2" value="" style="rounded=0;whiteSpace=wrap;html=1;" vertex="1" parent="1">
          <mxGeometry x="390" y="60" width="120" height="60" as="geometry" />
        </mxCell>
        <mxCell id="h2b4vLnJVBGGuHv0BcCE-3" value="Пользователь" style="text;html=1;strokeColor=none;fillColor=none;align=center;verticalAlign=middle;whiteSpace=wrap;rounded=0;" vertex="1" parent="1">
          <mxGeometry x="180" y="75" width="60" height="30" as="geometry" />
        </mxCell>
        <mxCell id="h2b4vLnJVBGGuHv0BcCE-4" value="Система" style="text;html=1;strokeColor=none;fillColor=none;align=center;verticalAlign=middle;whiteSpace=wrap;rounded=0;" vertex="1" parent="1">
          <mxGeometry x="420" y="75" width="60" height="30" as="geometry" />
        </mxCell>
        <mxCell id="h2b4vLnJVBGGuHv0BcCE-5" value="" style="rounded=0;whiteSpace=wrap;html=1;" vertex="1" parent="1">
          <mxGeometry x="650" y="60" width="120" height="60" as="geometry" />
        </mxCell>
        <mxCell id="h2b4vLnJVBGGuHv0BcCE-6" value="Администратор" style="text;html=1;strokeColor=none;fillColor=none;align=center;verticalAlign=middle;whiteSpace=wrap;rounded=0;" vertex="1" parent="1">
          <mxGeometry x="680" y="75" width="60" height="30" as="geometry" />
        </mxCell>
        <mxCell id="h2b4vLnJVBGGuHv0BcCE-11" style="edgeStyle=orthogonalEdgeStyle;rounded=0;orthogonalLoop=1;jettySize=auto;html=1;entryX=1;entryY=0.5;entryDx=0;entryDy=0;" edge="1" parent="1" source="h2b4vLnJVBGGuHv0BcCE-10" target="h2b4vLnJVBGGuHv0BcCE-10">
          <mxGeometry relative="1" as="geometry">
            <mxPoint x="290" y="220" as="targetPoint" />
            <Array as="points">
              <mxPoint x="290" y="160" />
              <mxPoint x="290" y="190" />
            </Array>
          </mxGeometry>
        </mxCell>
        <mxCell id="h2b4vLnJVBGGuHv0BcCE-10" value="" style="rounded=0;whiteSpace=wrap;html=1;" vertex="1" parent="1">
          <mxGeometry x="205" y="160" width="10" height="60" as="geometry" />
        </mxCell>
        <mxCell id="h2b4vLnJVBGGuHv0BcCE-13" style="edgeStyle=orthogonalEdgeStyle;rounded=0;orthogonalLoop=1;jettySize=auto;html=1;" edge="1" parent="1" source="h2b4vLnJVBGGuHv0BcCE-12">
          <mxGeometry relative="1" as="geometry">
            <mxPoint x="445" y="300" as="targetPoint" />
            <Array as="points">
              <mxPoint x="445" y="300" />
            </Array>
          </mxGeometry>
        </mxCell>
        <mxCell id="h2b4vLnJVBGGuHv0BcCE-12" value="" style="rounded=0;whiteSpace=wrap;html=1;" vertex="1" parent="1">
          <mxGeometry x="205" y="240" width="10" height="60" as="geometry" />
        </mxCell>
        <mxCell id="h2b4vLnJVBGGuHv0BcCE-22" style="edgeStyle=orthogonalEdgeStyle;rounded=0;orthogonalLoop=1;jettySize=auto;html=1;dashed=1;entryX=1;entryY=0;entryDx=0;entryDy=0;" edge="1" parent="1" source="h2b4vLnJVBGGuHv0BcCE-14" target="h2b4vLnJVBGGuHv0BcCE-20">
          <mxGeometry relative="1" as="geometry">
            <mxPoint x="220" y="360" as="targetPoint" />
            <Array as="points">
              <mxPoint x="320" y="360" />
              <mxPoint x="320" y="360" />
            </Array>
          </mxGeometry>
        </mxCell>
        <mxCell id="h2b4vLnJVBGGuHv0BcCE-14" value="" style="rounded=0;whiteSpace=wrap;html=1;" vertex="1" parent="1">
          <mxGeometry x="445" y="300" width="10" height="60" as="geometry" />
        </mxCell>
        <mxCell id="h2b4vLnJVBGGuHv0BcCE-16" value="Выбор товара" style="text;html=1;strokeColor=none;fillColor=none;align=center;verticalAlign=middle;whiteSpace=wrap;rounded=0;" vertex="1" parent="1">
          <mxGeometry x="300" y="160" width="60" height="30" as="geometry" />
        </mxCell>
        <mxCell id="h2b4vLnJVBGGuHv0BcCE-17" value="Оформление заказа" style="text;html=1;strokeColor=none;fillColor=none;align=center;verticalAlign=middle;whiteSpace=wrap;rounded=0;" vertex="1" parent="1">
          <mxGeometry x="260" y="270" width="140" height="30" as="geometry" />
        </mxCell>
        <mxCell id="h2b4vLnJVBGGuHv0BcCE-18" style="edgeStyle=orthogonalEdgeStyle;rounded=0;orthogonalLoop=1;jettySize=auto;html=1;entryX=1;entryY=0.5;entryDx=0;entryDy=0;" edge="1" parent="1">
          <mxGeometry relative="1" as="geometry">
            <mxPoint x="454.9999999999999" y="330" as="targetPoint" />
            <mxPoint x="454.9999999999999" y="300" as="sourcePoint" />
            <Array as="points">
              <mxPoint x="530" y="300" />
              <mxPoint x="530" y="330" />
            </Array>
          </mxGeometry>
        </mxCell>
        <mxCell id="h2b4vLnJVBGGuHv0BcCE-19" value="Рассчет стоимости заказа" style="text;html=1;strokeColor=none;fillColor=none;align=center;verticalAlign=middle;whiteSpace=wrap;rounded=0;" vertex="1" parent="1">
          <mxGeometry x="540" y="300" width="100" height="30" as="geometry" />
        </mxCell>
        <mxCell id="h2b4vLnJVBGGuHv0BcCE-20" value="" style="rounded=0;whiteSpace=wrap;html=1;" vertex="1" parent="1">
          <mxGeometry x="205" y="360" width="10" height="60" as="geometry" />
        </mxCell>
        <mxCell id="h2b4vLnJVBGGuHv0BcCE-23" value="Отображение стоимости заказа" style="text;html=1;strokeColor=none;fillColor=none;align=center;verticalAlign=middle;whiteSpace=wrap;rounded=0;" vertex="1" parent="1">
          <mxGeometry x="260" y="330" width="140" height="30" as="geometry" />
        </mxCell>
        <mxCell id="h2b4vLnJVBGGuHv0BcCE-24" style="edgeStyle=orthogonalEdgeStyle;rounded=0;orthogonalLoop=1;jettySize=auto;html=1;" edge="1" parent="1">
          <mxGeometry relative="1" as="geometry">
            <mxPoint x="445" y="419.17" as="targetPoint" />
            <mxPoint x="214.9999999999999" y="419.17" as="sourcePoint" />
            <Array as="points">
              <mxPoint x="445" y="419.17" />
            </Array>
          </mxGeometry>
        </mxCell>
        <mxCell id="h2b4vLnJVBGGuHv0BcCE-25" value="Подтверждение заказа" style="text;html=1;strokeColor=none;fillColor=none;align=center;verticalAlign=middle;whiteSpace=wrap;rounded=0;" vertex="1" parent="1">
          <mxGeometry x="260" y="389.17" width="140" height="30" as="geometry" />
        </mxCell>
        <mxCell id="h2b4vLnJVBGGuHv0BcCE-26" value="" style="rounded=0;whiteSpace=wrap;html=1;" vertex="1" parent="1">
          <mxGeometry x="445" y="420" width="10" height="60" as="geometry" />
        </mxCell>
        <mxCell id="h2b4vLnJVBGGuHv0BcCE-27" style="edgeStyle=orthogonalEdgeStyle;rounded=0;orthogonalLoop=1;jettySize=auto;html=1;entryX=1;entryY=0.5;entryDx=0;entryDy=0;" edge="1" parent="1">
          <mxGeometry relative="1" as="geometry">
            <mxPoint x="455" y="450" as="targetPoint" />
            <mxPoint x="455" y="420" as="sourcePoint" />
            <Array as="points">
              <mxPoint x="530" y="420" />
              <mxPoint x="530" y="450" />
            </Array>
          </mxGeometry>
        </mxCell>
        <mxCell id="h2b4vLnJVBGGuHv0BcCE-28" value="Сохранение заказа в бд" style="text;html=1;strokeColor=none;fillColor=none;align=center;verticalAlign=middle;whiteSpace=wrap;rounded=0;" vertex="1" parent="1">
          <mxGeometry x="530" y="420" width="80" height="30" as="geometry" />
        </mxCell>
        <mxCell id="h2b4vLnJVBGGuHv0BcCE-29" value="" style="rounded=0;whiteSpace=wrap;html=1;" vertex="1" parent="1">
          <mxGeometry x="445" y="500" width="10" height="60" as="geometry" />
        </mxCell>
        <mxCell id="h2b4vLnJVBGGuHv0BcCE-31" value="" style="endArrow=classic;html=1;rounded=0;entryX=1;entryY=0;entryDx=0;entryDy=0;" edge="1" parent="1" target="h2b4vLnJVBGGuHv0BcCE-29">
          <mxGeometry width="50" height="50" relative="1" as="geometry">
            <mxPoint x="710" y="500" as="sourcePoint" />
            <mxPoint x="460" y="500" as="targetPoint" />
          </mxGeometry>
        </mxCell>
        <mxCell id="h2b4vLnJVBGGuHv0BcCE-32" value="Изменение статуса заказа" style="text;html=1;strokeColor=none;fillColor=none;align=center;verticalAlign=middle;whiteSpace=wrap;rounded=0;" vertex="1" parent="1">
          <mxGeometry x="500" y="470" width="160" height="30" as="geometry" />
        </mxCell>
        <mxCell id="h2b4vLnJVBGGuHv0BcCE-35" value="" style="rounded=0;whiteSpace=wrap;html=1;" vertex="1" parent="1">
          <mxGeometry x="205" y="570" width="10" height="60" as="geometry" />
        </mxCell>
        <mxCell id="h2b4vLnJVBGGuHv0BcCE-36" style="edgeStyle=orthogonalEdgeStyle;rounded=0;orthogonalLoop=1;jettySize=auto;html=1;entryX=1;entryY=0.5;entryDx=0;entryDy=0;" edge="1" parent="1">
          <mxGeometry relative="1" as="geometry">
            <mxPoint x="215" y="600" as="targetPoint" />
            <mxPoint x="215" y="570" as="sourcePoint" />
            <Array as="points">
              <mxPoint x="290" y="570" />
              <mxPoint x="290" y="600" />
            </Array>
          </mxGeometry>
        </mxCell>
        <mxCell id="h2b4vLnJVBGGuHv0BcCE-37" value="Получение заказа" style="text;html=1;strokeColor=none;fillColor=none;align=center;verticalAlign=middle;whiteSpace=wrap;rounded=0;" vertex="1" parent="1">
          <mxGeometry x="290" y="570" width="80" height="30" as="geometry" />
        </mxCell>
        <mxCell id="h2b4vLnJVBGGuHv0BcCE-41" value="Пользователь" style="shape=umlActor;verticalLabelPosition=bottom;verticalAlign=top;html=1;outlineConnect=0;" vertex="1" parent="1">
          <mxGeometry x="60" y="1330" width="30" height="60" as="geometry" />
        </mxCell>
        <mxCell id="h2b4vLnJVBGGuHv0BcCE-42" value="Администратор" style="shape=umlActor;verticalLabelPosition=bottom;verticalAlign=top;html=1;outlineConnect=0;" vertex="1" parent="1">
          <mxGeometry x="700" y="1340" width="30" height="60" as="geometry" />
        </mxCell>
        <mxCell id="h2b4vLnJVBGGuHv0BcCE-43" value="Просмотр товаров&lt;span style=&quot;color: rgba(0 , 0 , 0 , 0) ; font-family: monospace ; font-size: 0px&quot;&gt;%3CmxGraphModel%3E%3Croot%3E%3CmxCell%20id%3D%220%22%2F%3E%3CmxCell%20id%3D%221%22%20parent%3D%220%22%2F%3E%3CmxCell%20id%3D%222%22%20value%3D%22%22%20style%3D%22endArrow%3Dnone%3Bdashed%3D1%3Bhtml%3D1%3Brounded%3D0%3BentryX%3D0.5%3BentryY%3D1%3BentryDx%3D0%3BentryDy%3D0%3B%22%20edge%3D%221%22%20parent%3D%221%22%3E%3CmxGeometry%20width%3D%2250%22%20height%3D%2250%22%20relative%3D%221%22%20as%3D%22geometry%22%3E%3CmxPoint%20x%3D%22449.28999999999974%22%20y%3D%22670.6666259765625%22%20as%3D%22sourcePoint%22%2F%3E%3CmxPoint%20x%3D%22449.28999999999974%22%20y%3D%22120.00000000000011%22%20as%3D%22targetPoint%22%2F%3E%3CArray%20as%3D%22points%22%3E%3CmxPoint%20x%3D%22449.29%22%20y%3D%22140%22%2F%3E%3C%2FArray%3E%3C%2FmxGeometry%3E%3C%2FmxCell%3E%3C%2Froot%3E%3C%2FmxGraphModel%3E&lt;/span&gt;" style="ellipse;whiteSpace=wrap;html=1;flipV=1;flipH=1;" vertex="1" parent="1">
          <mxGeometry x="240" y="1210" width="180" height="50" as="geometry" />
        </mxCell>
        <mxCell id="h2b4vLnJVBGGuHv0BcCE-44" value="Фильтрация товаров по категориям" style="ellipse;whiteSpace=wrap;html=1;flipV=1;flipH=1;" vertex="1" parent="1">
          <mxGeometry x="240" y="1270" width="180" height="50" as="geometry" />
        </mxCell>
        <mxCell id="h2b4vLnJVBGGuHv0BcCE-45" value="Заказ товара" style="ellipse;whiteSpace=wrap;html=1;flipV=1;flipH=1;" vertex="1" parent="1">
          <mxGeometry x="240" y="1330" width="180" height="50" as="geometry" />
        </mxCell>
        <mxCell id="h2b4vLnJVBGGuHv0BcCE-46" value="Просмотр заказов" style="ellipse;whiteSpace=wrap;html=1;flipV=1;flipH=1;" vertex="1" parent="1">
          <mxGeometry x="240" y="1390" width="180" height="50" as="geometry" />
        </mxCell>
        <mxCell id="h2b4vLnJVBGGuHv0BcCE-47" value="Добавление товара" style="ellipse;whiteSpace=wrap;html=1;flipV=1;flipH=1;" vertex="1" parent="1">
          <mxGeometry x="240" y="1450" width="180" height="50" as="geometry" />
        </mxCell>
        <mxCell id="h2b4vLnJVBGGuHv0BcCE-48" value="Добавление категории" style="ellipse;whiteSpace=wrap;html=1;flipV=1;flipH=1;" vertex="1" parent="1">
          <mxGeometry x="240" y="1510" width="180" height="50" as="geometry" />
        </mxCell>
        <mxCell id="h2b4vLnJVBGGuHv0BcCE-49" value="Изменение товара" style="ellipse;whiteSpace=wrap;html=1;flipV=1;flipH=1;" vertex="1" parent="1">
          <mxGeometry x="240" y="1570" width="180" height="50" as="geometry" />
        </mxCell>
        <mxCell id="h2b4vLnJVBGGuHv0BcCE-50" value="Удаление товара" style="ellipse;whiteSpace=wrap;html=1;flipV=1;flipH=1;" vertex="1" parent="1">
          <mxGeometry x="240" y="1630" width="180" height="50" as="geometry" />
        </mxCell>
        <mxCell id="h2b4vLnJVBGGuHv0BcCE-51" value="Изменение категории" style="ellipse;whiteSpace=wrap;html=1;flipV=1;flipH=1;" vertex="1" parent="1">
          <mxGeometry x="240" y="1688.5" width="180" height="50" as="geometry" />
        </mxCell>
        <mxCell id="h2b4vLnJVBGGuHv0BcCE-52" value="Удаление категории" style="ellipse;whiteSpace=wrap;html=1;flipV=1;flipH=1;" vertex="1" parent="1">
          <mxGeometry x="240" y="1750" width="180" height="50" as="geometry" />
        </mxCell>
        <mxCell id="h2b4vLnJVBGGuHv0BcCE-53" value="Заказ товара" style="ellipse;whiteSpace=wrap;html=1;flipV=1;flipH=1;" vertex="1" parent="1">
          <mxGeometry x="470" y="1370" width="180" height="50" as="geometry" />
        </mxCell>
        <mxCell id="h2b4vLnJVBGGuHv0BcCE-54" value="" style="endArrow=classic;html=1;rounded=0;entryX=1;entryY=0.5;entryDx=0;entryDy=0;exitX=0.544;exitY=1.006;exitDx=0;exitDy=0;exitPerimeter=0;dashed=1;" edge="1" parent="1" source="h2b4vLnJVBGGuHv0BcCE-53" target="h2b4vLnJVBGGuHv0BcCE-45">
          <mxGeometry width="50" height="50" relative="1" as="geometry">
            <mxPoint x="470" y="1350" as="sourcePoint" />
            <mxPoint x="520" y="1300" as="targetPoint" />
          </mxGeometry>
        </mxCell>
        <mxCell id="h2b4vLnJVBGGuHv0BcCE-56" value="&amp;lt;&amp;lt;&lt;font style=&quot;font-size: 14px&quot;&gt;extend&lt;/font&gt;&amp;gt;&amp;gt;" style="text;html=1;strokeColor=none;align=center;verticalAlign=middle;whiteSpace=wrap;rounded=0;" vertex="1" parent="1">
          <mxGeometry x="455" y="1348" width="60" height="20" as="geometry" />
        </mxCell>
        <mxCell id="h2b4vLnJVBGGuHv0BcCE-59" value="" style="endArrow=none;html=1;rounded=0;fontFamily=Times New Roman;fontSize=14;entryX=0;entryY=0.5;entryDx=0;entryDy=0;" edge="1" parent="1" target="h2b4vLnJVBGGuHv0BcCE-43">
          <mxGeometry width="50" height="50" relative="1" as="geometry">
            <mxPoint x="120" y="1350" as="sourcePoint" />
            <mxPoint x="170" y="1330" as="targetPoint" />
          </mxGeometry>
        </mxCell>
        <mxCell id="h2b4vLnJVBGGuHv0BcCE-60" value="" style="endArrow=none;html=1;rounded=0;fontFamily=Times New Roman;fontSize=14;entryX=0;entryY=0.5;entryDx=0;entryDy=0;" edge="1" parent="1">
          <mxGeometry width="50" height="50" relative="1" as="geometry">
            <mxPoint x="120" y="1361" as="sourcePoint" />
            <mxPoint x="240" y="1296" as="targetPoint" />
          </mxGeometry>
        </mxCell>
        <mxCell id="h2b4vLnJVBGGuHv0BcCE-61" value="" style="endArrow=none;html=1;rounded=0;fontFamily=Times New Roman;fontSize=14;entryX=0;entryY=0.5;entryDx=0;entryDy=0;" edge="1" parent="1" target="h2b4vLnJVBGGuHv0BcCE-45">
          <mxGeometry width="50" height="50" relative="1" as="geometry">
            <mxPoint x="120" y="1370" as="sourcePoint" />
            <mxPoint x="250" y="1305" as="targetPoint" />
          </mxGeometry>
        </mxCell>
        <mxCell id="h2b4vLnJVBGGuHv0BcCE-62" value="" style="endArrow=none;html=1;rounded=0;fontFamily=Times New Roman;fontSize=14;entryX=0;entryY=0.5;entryDx=0;entryDy=0;" edge="1" parent="1" target="h2b4vLnJVBGGuHv0BcCE-46">
          <mxGeometry width="50" height="50" relative="1" as="geometry">
            <mxPoint x="120" y="1380" as="sourcePoint" />
            <mxPoint x="250.0000000000001" y="1365" as="targetPoint" />
          </mxGeometry>
        </mxCell>
        <mxCell id="h2b4vLnJVBGGuHv0BcCE-64" value="" style="endArrow=none;html=1;rounded=0;fontFamily=Times New Roman;fontSize=14;exitX=1;exitY=0.5;exitDx=0;exitDy=0;" edge="1" parent="1" source="h2b4vLnJVBGGuHv0BcCE-43">
          <mxGeometry width="50" height="50" relative="1" as="geometry">
            <mxPoint x="560" y="1330" as="sourcePoint" />
            <mxPoint x="680" y="1360" as="targetPoint" />
          </mxGeometry>
        </mxCell>
        <mxCell id="h2b4vLnJVBGGuHv0BcCE-65" value="" style="endArrow=none;html=1;rounded=0;fontFamily=Times New Roman;fontSize=14;exitX=1;exitY=0.5;exitDx=0;exitDy=0;" edge="1" parent="1" source="h2b4vLnJVBGGuHv0BcCE-47">
          <mxGeometry width="50" height="50" relative="1" as="geometry">
            <mxPoint x="470" y="1550" as="sourcePoint" />
            <mxPoint x="660" y="1420" as="targetPoint" />
          </mxGeometry>
        </mxCell>
        <mxCell id="h2b4vLnJVBGGuHv0BcCE-66" value="" style="endArrow=none;html=1;rounded=0;fontFamily=Times New Roman;fontSize=14;exitX=1;exitY=0.5;exitDx=0;exitDy=0;" edge="1" parent="1" source="h2b4vLnJVBGGuHv0BcCE-48">
          <mxGeometry width="50" height="50" relative="1" as="geometry">
            <mxPoint x="520" y="1570" as="sourcePoint" />
            <mxPoint x="660" y="1440" as="targetPoint" />
          </mxGeometry>
        </mxCell>
        <mxCell id="h2b4vLnJVBGGuHv0BcCE-67" value="" style="endArrow=none;html=1;rounded=0;fontFamily=Times New Roman;fontSize=14;exitX=1;exitY=0.5;exitDx=0;exitDy=0;" edge="1" parent="1" source="h2b4vLnJVBGGuHv0BcCE-49">
          <mxGeometry width="50" height="50" relative="1" as="geometry">
            <mxPoint x="540" y="1610" as="sourcePoint" />
            <mxPoint x="670" y="1450" as="targetPoint" />
          </mxGeometry>
        </mxCell>
        <mxCell id="h2b4vLnJVBGGuHv0BcCE-68" value="" style="endArrow=none;html=1;rounded=0;fontFamily=Times New Roman;fontSize=14;exitX=1;exitY=0.5;exitDx=0;exitDy=0;" edge="1" parent="1" source="h2b4vLnJVBGGuHv0BcCE-50">
          <mxGeometry width="50" height="50" relative="1" as="geometry">
            <mxPoint x="580" y="1630" as="sourcePoint" />
            <mxPoint x="680" y="1460" as="targetPoint" />
          </mxGeometry>
        </mxCell>
        <mxCell id="h2b4vLnJVBGGuHv0BcCE-69" value="" style="endArrow=none;html=1;rounded=0;fontFamily=Times New Roman;fontSize=14;exitX=1;exitY=0.5;exitDx=0;exitDy=0;" edge="1" parent="1" source="h2b4vLnJVBGGuHv0BcCE-51">
          <mxGeometry width="50" height="50" relative="1" as="geometry">
            <mxPoint x="530" y="1660" as="sourcePoint" />
            <mxPoint x="690" y="1470" as="targetPoint" />
          </mxGeometry>
        </mxCell>
        <mxCell id="h2b4vLnJVBGGuHv0BcCE-70" value="" style="endArrow=none;html=1;rounded=0;fontFamily=Times New Roman;fontSize=14;exitX=1;exitY=0.5;exitDx=0;exitDy=0;" edge="1" parent="1" source="h2b4vLnJVBGGuHv0BcCE-52">
          <mxGeometry width="50" height="50" relative="1" as="geometry">
            <mxPoint x="690" y="1570" as="sourcePoint" />
            <mxPoint x="700" y="1480" as="targetPoint" />
          </mxGeometry>
        </mxCell>
        <mxCell id="h2b4vLnJVBGGuHv0BcCE-80" style="edgeStyle=orthogonalEdgeStyle;rounded=1;orthogonalLoop=1;jettySize=auto;html=1;entryX=0.5;entryY=0;entryDx=0;entryDy=0;fontFamily=Helvetica;fontSize=14;endArrow=none;endFill=0;exitX=0.5;exitY=0;exitDx=0;exitDy=0;" edge="1" parent="1" source="h2b4vLnJVBGGuHv0BcCE-74" target="h2b4vLnJVBGGuHv0BcCE-73">
          <mxGeometry relative="1" as="geometry">
            <Array as="points">
              <mxPoint x="655" y="2480" />
              <mxPoint x="200" y="2480" />
            </Array>
          </mxGeometry>
        </mxCell>
        <mxCell id="h2b4vLnJVBGGuHv0BcCE-81" style="edgeStyle=orthogonalEdgeStyle;rounded=1;orthogonalLoop=1;jettySize=auto;html=1;entryX=0.5;entryY=0;entryDx=0;entryDy=0;fontFamily=Helvetica;fontSize=14;endArrow=none;endFill=0;" edge="1" parent="1" source="h2b4vLnJVBGGuHv0BcCE-72" target="h2b4vLnJVBGGuHv0BcCE-75">
          <mxGeometry relative="1" as="geometry" />
        </mxCell>
        <mxCell id="h2b4vLnJVBGGuHv0BcCE-72" value="&lt;font face=&quot;Helvetica&quot;&gt;&amp;nbsp;Главная страница&lt;/font&gt;" style="rounded=1;whiteSpace=wrap;html=1;fontFamily=Times New Roman;fontSize=14;fillColor=#bac8d3;strokeColor=#23445d;" vertex="1" parent="1">
          <mxGeometry x="330" y="2410" width="190" height="50" as="geometry" />
        </mxCell>
        <mxCell id="h2b4vLnJVBGGuHv0BcCE-73" value="&lt;font face=&quot;Helvetica&quot;&gt;Товары определенной категории&lt;/font&gt;" style="rounded=1;whiteSpace=wrap;html=1;fontFamily=Times New Roman;fontSize=14;flipV=1;flipH=1;fillColor=#bac8d3;strokeColor=#23445d;" vertex="1" parent="1">
          <mxGeometry x="105" y="2510" width="190" height="50" as="geometry" />
        </mxCell>
        <mxCell id="h2b4vLnJVBGGuHv0BcCE-74" value="&lt;font face=&quot;Helvetica&quot;&gt;Корзина&lt;/font&gt;" style="rounded=1;whiteSpace=wrap;html=1;fontFamily=Times New Roman;fontSize=14;flipV=1;flipH=1;fillColor=#bac8d3;strokeColor=#23445d;" vertex="1" parent="1">
          <mxGeometry x="560" y="2510" width="190" height="50" as="geometry" />
        </mxCell>
        <mxCell id="h2b4vLnJVBGGuHv0BcCE-84" style="edgeStyle=orthogonalEdgeStyle;rounded=1;orthogonalLoop=1;jettySize=auto;html=1;fontFamily=Helvetica;fontSize=14;endArrow=none;endFill=0;" edge="1" parent="1" source="h2b4vLnJVBGGuHv0BcCE-75">
          <mxGeometry relative="1" as="geometry">
            <mxPoint x="425" y="2590" as="targetPoint" />
          </mxGeometry>
        </mxCell>
        <mxCell id="h2b4vLnJVBGGuHv0BcCE-75" value="&lt;font face=&quot;Helvetica&quot;&gt;Войти в профиль&lt;/font&gt;" style="rounded=1;whiteSpace=wrap;html=1;fontFamily=Times New Roman;fontSize=14;flipV=1;flipH=1;fillColor=#bac8d3;strokeColor=#23445d;" vertex="1" parent="1">
          <mxGeometry x="330" y="2510" width="190" height="50" as="geometry" />
        </mxCell>
        <mxCell id="h2b4vLnJVBGGuHv0BcCE-76" value="&lt;font face=&quot;Helvetica&quot;&gt;Панель управления&lt;/font&gt;" style="rounded=1;whiteSpace=wrap;html=1;fontFamily=Times New Roman;fontSize=14;fillColor=#bac8d3;strokeColor=#23445d;" vertex="1" parent="1">
          <mxGeometry x="212.25" y="2620" width="190" height="50" as="geometry" />
        </mxCell>
        <mxCell id="h2b4vLnJVBGGuHv0BcCE-77" value="&lt;font face=&quot;Helvetica&quot;&gt;Профиль&lt;/font&gt;" style="rounded=1;whiteSpace=wrap;html=1;fontFamily=Times New Roman;fontSize=14;fillColor=#bac8d3;strokeColor=#23445d;" vertex="1" parent="1">
          <mxGeometry x="447.75" y="2620" width="190" height="50" as="geometry" />
        </mxCell>
        <mxCell id="h2b4vLnJVBGGuHv0BcCE-78" value="&lt;font face=&quot;Helvetica&quot;&gt;Продукты&lt;/font&gt;" style="rounded=1;whiteSpace=wrap;html=1;fontFamily=Times New Roman;fontSize=14;fillColor=#bac8d3;strokeColor=#23445d;" vertex="1" parent="1">
          <mxGeometry x="84.5" y="2730" width="190" height="50" as="geometry" />
        </mxCell>
        <mxCell id="h2b4vLnJVBGGuHv0BcCE-79" value="&lt;font face=&quot;Helvetica&quot;&gt;Категории&lt;/font&gt;" style="rounded=1;whiteSpace=wrap;html=1;fontFamily=Times New Roman;fontSize=14;fillColor=#bac8d3;strokeColor=#23445d;" vertex="1" parent="1">
          <mxGeometry x="320" y="2730" width="190" height="50" as="geometry" />
        </mxCell>
        <mxCell id="h2b4vLnJVBGGuHv0BcCE-83" style="edgeStyle=orthogonalEdgeStyle;rounded=1;orthogonalLoop=1;jettySize=auto;html=1;entryX=0.5;entryY=0;entryDx=0;entryDy=0;fontFamily=Helvetica;fontSize=14;endArrow=none;endFill=0;exitX=0.5;exitY=0;exitDx=0;exitDy=0;" edge="1" parent="1" source="h2b4vLnJVBGGuHv0BcCE-77">
          <mxGeometry relative="1" as="geometry">
            <mxPoint x="755" y="2620" as="sourcePoint" />
            <mxPoint x="300" y="2620" as="targetPoint" />
            <Array as="points">
              <mxPoint x="543" y="2590" />
              <mxPoint x="300" y="2590" />
            </Array>
          </mxGeometry>
        </mxCell>
        <mxCell id="h2b4vLnJVBGGuHv0BcCE-85" style="edgeStyle=orthogonalEdgeStyle;rounded=1;orthogonalLoop=1;jettySize=auto;html=1;fontFamily=Helvetica;fontSize=14;endArrow=none;endFill=0;" edge="1" parent="1">
          <mxGeometry relative="1" as="geometry">
            <mxPoint x="296" y="2700" as="targetPoint" />
            <mxPoint x="296" y="2670" as="sourcePoint" />
          </mxGeometry>
        </mxCell>
        <mxCell id="h2b4vLnJVBGGuHv0BcCE-86" style="edgeStyle=orthogonalEdgeStyle;rounded=1;orthogonalLoop=1;jettySize=auto;html=1;entryX=0.5;entryY=0;entryDx=0;entryDy=0;fontFamily=Helvetica;fontSize=14;endArrow=none;endFill=0;exitX=0.5;exitY=0;exitDx=0;exitDy=0;" edge="1" parent="1">
          <mxGeometry relative="1" as="geometry">
            <mxPoint x="413.75" y="2730" as="sourcePoint" />
            <mxPoint x="171" y="2730" as="targetPoint" />
            <Array as="points">
              <mxPoint x="414" y="2700" />
              <mxPoint x="171" y="2700" />
            </Array>
          </mxGeometry>
        </mxCell>
      </root>
    </mxGraphModel>
  </diagram>
</mxfile>
